<svg id="erlvqn9465a1" xmlns="http://www.w3.org/2000/svg" xmlns:xlink="http://www.w3.org/1999/xlink" viewBox="0 0 472 449" shape-rendering="geometricPrecision" text-rendering="geometricPrecision"><g id="erlvqn9465a2" transform="matrix(1 0 0 1 -6.66485055000003 -8.96555620499997)"><path id="erlvqn9465a3" d="M138.176000,155.717000L98.214400,180.126000C96.448100,181.205000,94.324100,181.509000,92.309600,180.971000C90.295100,180.434000,88.555000,179.099000,87.472000,177.260000L67.052500,142.588000L68.656700,99.178800L81.977000,91.041900L120.334000,110.041000L140.753000,144.712000C141.290000,145.623000,141.649000,146.630000,141.810000,147.676000C141.970000,148.722000,141.930000,149.787000,141.691000,150.809000C141.451000,151.831000,141.018000,152.790000,140.415000,153.632000C139.811000,154.474000,139.051000,155.183000,138.176000,155.717000Z" fill="rgb(142,210,255)" stroke="none" stroke-width="1"/><path id="erlvqn9465a4" d="M57.166600,87.344900L77.151700,75.137400L85.320600,89.009400L65.335400,101.217000L57.166600,87.344900Z" fill="rgb(197,0,0)" stroke="none" stroke-width="1"/><path id="erlvqn9465a5" d="M67.063500,142.600000L120.357000,110.047000L140.779000,144.727000C141.863000,146.566000,142.200000,148.759000,141.716000,150.823000C141.233000,152.887000,139.969000,154.653000,138.202000,155.732000L98.231700,180.147000C96.464900,181.226000,94.340100,181.530000,92.324800,180.993000C90.309600,180.455000,88.568800,179.119000,87.485600,177.280000L67.063500,142.600000L67.063500,142.600000Z" fill="rgb(197,0,0)" stroke="none" stroke-width="1"/><path id="erlvqn9465a6" d="M138.204000,155.730000L98.233300,180.145000C94.554100,182.393000,93.400200,187.320000,95.656000,191.150000L99.740400,198.086000C101.996000,201.917000,106.807000,203.201000,110.487000,200.953000L150.457000,176.538000C154.136000,174.291000,155.290000,169.364000,153.034000,165.533000L148.950000,158.597000C146.694000,154.767000,141.883000,153.483000,138.204000,155.730000Z" fill="rgb(142,210,255)" stroke="none" stroke-width="1"/><path id="erlvqn9465a7" d="M150.458000,176.538000L110.488000,200.953000C106.809000,203.200000,105.655000,208.127000,107.911000,211.958000L111.995000,218.894000C114.251000,222.724000,119.062000,224.008000,122.741000,221.761000L162.712000,197.346000C166.391000,195.098000,167.545000,190.171000,165.289000,186.341000L161.205000,179.405000C158.949000,175.574000,154.138000,174.290000,150.458000,176.538000Z" fill="rgb(142,210,255)" stroke="none" stroke-width="1"/><path id="erlvqn9465a8" d="M162.038000,197.541000L122.068000,221.956000C118.388000,224.203000,117.235000,229.130000,119.490000,232.961000L123.575000,239.897000C125.830000,243.728000,130.642000,245.011000,134.321000,242.764000L174.291000,218.349000C177.970000,216.101000,179.124000,211.174000,176.868000,207.344000L172.784000,200.408000C170.528000,196.577000,165.717000,195.294000,162.038000,197.541000Z" fill="rgb(142,210,255)" stroke="none" stroke-width="1"/></g><g id="erlvqn9465a9" transform="matrix(1 0 0 1 -13.20960923000001 9.49041250000012)"><g id="erlvqn9465a10" transform="matrix(1 0 0 1 1.55158695000000 -8.50664995499997)"><path id="erlvqn9465a11" d="M220.921000,112.644000C227.902000,119.313000,232.431000,127.967000,233.828000,137.304000L237.767000,163.651000L210.187000,159.887000C200.414000,158.553000,191.356000,154.226000,184.375000,147.556000C177.512000,141,173.017000,132.524000,171.541000,123.360000L168.050000,101.677000C167.843000,100.399000,168.288000,99.103500,169.245000,98.189200C170.202000,97.274900,171.558000,96.850300,172.895000,97.047400L195.594000,100.383000C205.185000,101.793000,214.058000,106.087000,220.921000,112.644000Z" transform="matrix(1 0 0 1 1.80686433999992 1.15101912999997)" fill="rgb(219,155,124)" stroke="none" stroke-width="1"/><path id="erlvqn9465a12" d="M171.998000,125.754000C171.822000,124.961000,171.670000,124.165000,171.541000,123.360000L168.050000,101.677000C167.843000,100.399000,168.288000,99.103500,169.245000,98.189200C170.202000,97.274900,171.558000,96.850300,172.895000,97.047400L195.594000,100.383000C196.434000,100.506000,197.270000,100.652000,198.099000,100.820000C199.223000,103.190000,199.850000,105.821000,199.850000,108.591000C199.850000,118.995000,191.023000,127.428000,180.133000,127.428000C177.232000,127.428000,174.477000,126.829000,171.998000,125.754000L171.998000,125.754000Z" fill="rgb(239,190,154)" stroke="none" stroke-width="1"/><path id="erlvqn9465a13" d="M213.827000,160.384000L210.187000,159.887000C200.414000,158.553000,191.356000,154.226000,184.375000,147.556000C182.214000,145.493000,180.288000,143.237000,178.616000,140.830000L178.616000,145.842000C178.616000,149.691000,180.762000,153.248000,184.249000,155.177000L199.029000,163.351000C203.861000,166.022000,210.011000,164.919000,213.500000,160.754000L213.827000,160.384000Z" fill="rgb(228,124,110)" stroke="none" stroke-width="1"/><path id="erlvqn9465a14" d="M236.250000,152.060000L238.586000,147.597000C241.913000,141.238000,242.142000,133.802000,239.210000,127.265000L236.755000,121.791000C232.818000,113.016000,223.850000,107.287000,213.879000,107.145000L213.880000,107.142000C216.400000,108.739000,218.760000,110.579000,220.921000,112.644000C227.902000,119.313000,232.431000,127.967000,233.828000,137.304000L236.038000,152.089000L236.250000,152.060000Z" fill="rgb(228,124,110)" stroke="none" stroke-width="1"/><path id="erlvqn9465a15" d="M259,165.100000C254.131000,162.310000,248.327000,161.410000,242.784000,162.586000L237.767000,163.651000L236.652000,168.445000C235.420000,173.740000,236.362000,179.286000,239.283000,183.937000L245.350000,170.896000L259,165.100000Z" fill="rgb(228,124,110)" stroke="none" stroke-width="1"/><g id="erlvqn9465a16"><path id="erlvqn9465a17" d="M183.166000,108.590000C181.493000,108.590000,180.133000,107.290000,180.133000,105.692000C180.133000,104.094000,181.493000,102.794000,183.166000,102.794000C184.839000,102.794000,186.200000,104.094000,186.200000,105.692000C186.198000,107.290000,184.838000,108.590000,183.166000,108.590000Z" fill="rgb(96,96,96)" stroke="none" stroke-width="1"/></g><path id="erlvqn9465a18" d="M185.399000,120.927000L186.639000,122.754000L186.893000,118.008000C183.663000,113.913000,179.112000,111.036000,173.888000,109.859000L170.420000,109.077000L169.807000,111.907000L173.276000,112.689000C178.285000,113.818000,182.588000,116.742000,185.399000,120.927000L185.399000,120.927000Z" fill="rgb(219,155,124)" stroke="none" stroke-width="1"/><g id="erlvqn9465a19"><g id="erlvqn9465a20"><path id="erlvqn9465a21" d="M207.433000,121.630000L201.366000,121.630000L201.366000,118.732000L206.804000,118.732000L208.950000,116.684000L208.950000,111.489000L211.983000,111.489000L211.983000,117.285000C211.983000,117.670000,211.824000,118.038000,211.540000,118.311000L208.507000,121.209000C208.222000,121.478000,207.835000,121.630000,207.433000,121.630000Z" fill="rgb(239,190,154)" stroke="none" stroke-width="1"/></g><g id="erlvqn9465a22"><path id="erlvqn9465a23" d="M189.233000,139.018000L183.166000,139.018000L183.166000,136.120000L188.604000,136.120000L190.750000,134.071000L190.750000,128.877000L193.783000,128.877000L193.783000,134.672000C193.783000,135.058000,193.624000,135.426000,193.340000,135.698000L190.307000,138.596000C190.022000,138.866000,189.635000,139.018000,189.233000,139.018000L189.233000,139.018000Z" fill="rgb(239,190,154)" stroke="none" stroke-width="1"/></g><g id="erlvqn9465a24"><path id="erlvqn9465a25" d="M202.883000,134.671000L196.816000,134.671000L196.816000,131.773000L202.254000,131.773000L204.400000,129.724000L204.400000,124.530000L207.433000,124.530000L207.433000,130.325000C207.433000,130.711000,207.274000,131.079000,206.990000,131.351000L203.957000,134.249000C203.672000,134.519000,203.285000,134.671000,202.883000,134.671000L202.883000,134.671000Z" fill="rgb(239,190,154)" stroke="none" stroke-width="1"/></g><g id="erlvqn9465a26"><path id="erlvqn9465a27" d="M216.533000,130.324000L210.466000,130.324000L210.466000,127.426000L215.904000,127.426000L218.050000,125.377000L218.050000,120.183000L221.083000,120.183000L221.083000,125.979000C221.083000,126.364000,220.924000,126.732000,220.640000,127.005000L217.607000,129.902000C217.322000,130.172000,216.935000,130.324000,216.533000,130.324000L216.533000,130.324000Z" fill="rgb(239,190,154)" stroke="none" stroke-width="1"/></g><g id="erlvqn9465a28"><path id="erlvqn9465a29" d="M198.333000,147.711000L192.266000,147.711000L192.266000,144.814000L197.704000,144.814000L199.850000,142.765000L199.850000,137.570000L202.883000,137.570000L202.883000,143.366000C202.883000,143.751000,202.724000,144.120000,202.440000,144.392000L199.407000,147.290000C199.122000,147.559000,198.735000,147.711000,198.333000,147.711000L198.333000,147.711000Z" fill="rgb(239,190,154)" stroke="none" stroke-width="1"/></g><g id="erlvqn9465a30"><path id="erlvqn9465a31" d="M211.983000,143.365000L205.916000,143.365000L205.916000,140.467000L211.354000,140.467000L213.500000,138.418000L213.500000,133.223000L216.533000,133.223000L216.533000,139.019000C216.533000,139.405000,216.374000,139.773000,216.090000,140.045000L213.057000,142.943000C212.772000,143.212000,212.385000,143.365000,211.983000,143.365000L211.983000,143.365000Z" fill="rgb(239,190,154)" stroke="none" stroke-width="1"/></g><g id="erlvqn9465a32"><path id="erlvqn9465a33" d="M225.633000,139.018000L221.083000,139.018000L221.083000,136.120000L225.005000,136.120000L227.150000,134.071000L227.150000,130.326000L230.183000,130.326000L230.185000,134.672000C230.185000,135.056000,230.025000,135.426000,229.740000,135.698000L226.707000,138.596000C226.422000,138.866000,226.035000,139.018000,225.633000,139.018000L225.633000,139.018000Z" fill="rgb(239,190,154)" stroke="none" stroke-width="1"/></g><g id="erlvqn9465a34"><path id="erlvqn9465a35" d="M207.433000,156.405000L202.883000,156.405000L202.883000,153.507000L206.805000,153.507000L208.950000,151.458000L208.950000,147.713000L211.983000,147.713000L211.985000,152.060000C211.985000,152.444000,211.825000,152.813000,211.540000,153.086000L208.507000,155.984000C208.222000,156.253000,207.835000,156.405000,207.433000,156.405000L207.433000,156.405000Z" fill="rgb(239,190,154)" stroke="none" stroke-width="1"/></g><g id="erlvqn9465a36"><path id="erlvqn9465a37" d="M221.083000,152.058000L215.016000,152.058000L215.016000,149.160000L220.454000,149.160000L222.600000,147.112000L222.600000,141.917000L225.633000,141.917000L225.633000,147.713000C225.633000,148.098000,225.474000,148.466000,225.190000,148.739000L222.157000,151.637000C221.872000,151.906000,221.485000,152.058000,221.083000,152.058000L221.083000,152.058000Z" fill="rgb(239,190,154)" stroke="none" stroke-width="1"/></g></g><g id="erlvqn9465a38"><path id="erlvqn9465a39" d="M236.755000,121.793000C236.283000,120.741000,235.736000,119.737000,235.126000,118.776000L222.459000,114.238000C223.786000,115.639000,225.019000,117.108000,226.138000,118.651000L237.110000,122.582000L236.755000,121.793000Z" fill="rgb(231,212,44)" stroke="none" stroke-width="1"/><path id="erlvqn9465a40" d="M230.887000,126.980000L240.422000,130.765000C240.102000,129.579000,239.723000,128.406000,239.212000,127.265000L239.147000,127.119000L228.949000,123.071000C229.654000,124.346000,230.315000,125.644000,230.887000,126.980000L230.887000,126.980000Z" fill="rgb(231,212,44)" stroke="none" stroke-width="1"/><path id="erlvqn9465a41" d="M233.353000,134.846000L241.205000,137.963000C241.258000,136.912000,241.256000,135.859000,241.167000,134.810000L232.457000,131.353000C232.806000,132.502000,233.103000,133.667000,233.353000,134.846000Z" fill="rgb(231,212,44)" stroke="none" stroke-width="1"/><path id="erlvqn9465a42" d="M201.547000,164.367000L200.074000,157.331000C198.925000,156.902000,197.793000,156.431000,196.684000,155.915000L198.137000,162.855000L199.031000,163.349000C199.836000,163.796000,200.682000,164.128000,201.547000,164.367000L201.547000,164.367000Z" fill="rgb(231,212,44)" stroke="none" stroke-width="1"/><path id="erlvqn9465a43" d="M183.861000,147.041000L187.286000,156.854000L191.247000,159.045000L188.420000,150.943000C187.016000,149.885000,185.651000,148.775000,184.377000,147.556000C184.199000,147.388000,184.034000,147.212000,183.861000,147.041000L183.861000,147.041000Z" fill="rgb(231,212,44)" stroke="none" stroke-width="1"/></g></g></g><g id="erlvqn9465a44"><path id="erlvqn9465a45" d="M507.912986,148.990799C448.179498,148.990799,458.135079,130.121835,398.401591,130.121835C338.668103,130.121835,338.668103,148.990799,278.934615,148.990799C219.201127,148.990799,219.201127,130.121835,159.467639,130.121835C99.734150,130.121835,99.734150,148.990799,40.000662,148.990799C-19.732826,148.990799,-19.732826,130.121835,-79.466314,130.121835L-79.466314,449L507.912986,449L507.912986,148.990799Z" fill="rgb(66,141,197)" stroke="none" stroke-width="1"/><g id="erlvqn9465a46" transform="matrix(1 0 0 1 -202.95143342166665 107.42408704666656)"><g id="erlvqn9465a47"><path id="erlvqn9465a48" d="M292.335000,103.994000L296.211000,88.188300L386.307000,99.208100L382.432000,115.014000L292.335000,103.994000Z" fill="rgb(231,130,68)" stroke="none" stroke-width="1"/><path id="erlvqn9465a49" d="M376.160000,97.982600L306.095000,89.438300L314.965000,74.245600L375.021000,81.569300L376.160000,97.982600Z" fill="rgb(253,146,38)" stroke="none" stroke-width="1"/><path id="erlvqn9465a50" d="M345.043000,180.012000L293.255000,171.940000L297.224000,104.632000L377.299000,114.396000L345.043000,180.012000Z" fill="rgb(188,225,255)" stroke="none" stroke-width="1"/></g><path id="erlvqn9465a51" d="M367.421000,134.486000L345.043000,180.012000L293.255000,171.940000L294.617000,148.786000C322.025000,146.053000,322.358000,136.714000,351.818000,134.476000C357.025000,134.009000,362.261000,134.013000,367.421000,134.486000L367.421000,134.486000Z" fill="rgb(142,210,255)" stroke="none" stroke-width="1"/></g><path id="erlvqn9465a52" d="M518.218543,243C458.485055,243,468.440637,223,408.707149,223C348.973660,223,348.973660,243,289.240172,243C229.506684,243,229.506684,223,169.773196,223C110.039708,223,110.039708,243,50.306220,243C-9.427268,243,-9.427268,223,-69.160756,223L-69.160756,449L518.218543,449L518.218543,243Z" transform="matrix(1 0 0 1 -4.25222950000000 15.05174199999999)" fill="rgb(71,153,207)" stroke="none" stroke-width="1"/><path id="erlvqn9465a53" d="M377.807184,255.955833L391.176792,294.725549C391.910556,296.853048,391.835998,299.144066,390.969483,301.094859C390.102059,303.046532,388.514509,304.497100,386.555075,305.129195L332.373792,322.596667C330.414359,323.227883,328.243071,322.988759,326.339102,321.931164C324.435133,320.873568,322.953056,319.084535,322.219291,316.957036L302.855909,260.806883L289.309906,265.174410C285.064619,266.543218,281.624018,269.686994,279.746417,273.913860C277.867907,278.140726,277.706061,283.105184,279.295430,287.714472L326.321826,424.078375C327.422018,427.268745,329.645134,429.952734,332.501997,431.539567C335.357950,433.125521,338.613973,433.485086,341.553578,432.537382L447.452986,398.396296C450.392591,397.448592,452.773916,395.271861,454.074143,392.345231C455.374370,389.419480,455.487117,385.982075,454.386015,382.790826L401.366754,229.048244L387.821660,233.414892C383.575464,234.783700,380.135772,237.927476,378.257262,242.154342C376.379662,246.382087,376.216906,251.346545,377.807184,255.955833L377.807184,255.955833Z" fill="rgb(188,225,255)" stroke="none" stroke-width="1"/><path id="erlvqn9465a54" d="M507.056661,351.222713C447.323173,351.222713,457.278755,330.419035,397.545266,330.419035C337.811778,330.419035,337.811778,351.222713,278.078290,351.222713C218.344802,351.222713,218.344802,330.419035,158.611314,330.419035C98.877826,330.419035,98.877826,351.222713,39.144338,351.222713C-20.589150,351.222713,-20.589150,330.419035,-80.322639,330.419035L-80.322639,449L507.056661,449L507.056661,351.222713Z" fill="rgb(66,141,197)" stroke="none" stroke-width="1"/><g id="erlvqn9465a55"><path id="erlvqn9465a56" d="M-31.500000,0C-31.500000,-14.359403,-17.396970,-26,0,-26C17.396970,-26,31.500000,-14.359403,31.500000,0C31.500000,14.359403,17.396970,26,0,26C-17.396970,26,-31.500000,14.359403,-31.500000,0Z" transform="matrix(1 0 0 1 -36.81765594999999 86.47276255000003)" opacity="0.91" fill="rgb(231,212,44)" stroke="none" stroke-width="1"/></g></g><script><![CDATA[!function(t,n){"object"==typeof exports&&"undefined"!=typeof module?module.exports=n():"function"==typeof define&&define.amd?define(n):(t=t||self).__SVGATOR_PLAYER__=n()}(this,(function(){"use strict";function t(n){return(t="function"==typeof Symbol&&"symbol"==typeof Symbol.iterator?function(t){return typeof t}:function(t){return t&&"function"==typeof Symbol&&t.constructor===Symbol&&t!==Symbol.prototype?"symbol":typeof t})(n)}function n(t,n){if(!(t instanceof n))throw new TypeError("Cannot call a class as a function")}function r(t,n){for(var r=0;r<n.length;r++){var e=n[r];e.enumerable=e.enumerable||!1,e.configurable=!0,"value"in e&&(e.writable=!0),Object.defineProperty(t,e.key,e)}}function e(t,n,e){return n&&r(t.prototype,n),e&&r(t,e),t}var i=Math.abs;function u(t){return t}function o(t,n,r){var e=1-r;return 3*r*e*(t*e+n*r)+r*r*r}function a(){var t=arguments.length>0&&void 0!==arguments[0]?arguments[0]:0,n=arguments.length>1&&void 0!==arguments[1]?arguments[1]:0,r=arguments.length>2&&void 0!==arguments[2]?arguments[2]:1,e=arguments.length>3&&void 0!==arguments[3]?arguments[3]:1;return t<0||t>1||r<0||r>1?null:i(t-n)<=1e-5&&i(r-e)<=1e-5?u:function(u){if(u<=0)return t>0?u*n/t:0===n&&r>0?u*e/r:0;if(u>=1)return r<1?1+(u-1)*(e-1)/(r-1):1===r&&t<1?1+(u-1)*(n-1)/(t-1):1;for(var a,l=0,f=1;l<f;){var s=o(t,r,a=(l+f)/2);if(i(u-s)<1e-5)break;s<u?l=a:f=a}return o(n,e,a)}}function l(){return 1}function f(t){return 1===t?1:0}function s(){var t=arguments.length>0&&void 0!==arguments[0]?arguments[0]:1,n=arguments.length>1&&void 0!==arguments[1]?arguments[1]:0;if(1===t){if(0===n)return f;if(1===n)return l}var r=1/t;return function(t){return t>=1?1:(t+=n*r)-t%r}}function c(t){var n=arguments.length>1&&void 0!==arguments[1]?arguments[1]:2;if(Number.isInteger(t))return t;var r=Math.pow(10,n);return Math.round(t*r)/r}var v=Math.PI/180;function h(t,n,r){return t>=.5?r:n}function y(t,n,r){return 0===t||n===r?n:t*(r-n)+n}function d(t,n,r){var e=y(t,n,r);return e<=0?0:e}function g(t,n,r){return 0===t?n:1===t?r:{x:y(t,n.x,r.x),y:y(t,n.y,r.y)}}function m(t,n,r){return 0===t?n:1===t?r:{x:d(t,n.x,r.x),y:d(t,n.y,r.y)}}function p(t,n,r){var e=function(t,n,r){return Math.round(y(t,n,r))}(t,n,r);return e<=0?0:e>=255?255:e}function b(t,n,r){return 0===t?n:1===t?r:{r:p(t,n.r,r.r),g:p(t,n.g,r.g),b:p(t,n.b,r.b),a:y(t,null==n.a?1:n.a,null==r.a?1:r.a)}}function w(t,n,r){if(0===t)return n;if(1===t)return r;var e=n.length;if(e!==r.length)return h(t,n,r);for(var i=[],u=0;u<e;u++)i.push(b(t,n[u],r[u]));return i}function A(t,n,r){var e=n.length;if(e!==r.length)return h(t,n,r);for(var i=new Array(e),u=0;u<e;u++)i[u]=y(t,n[u],r[u]);return i}function x(t,n){for(var r=[],e=0;e<t;e++)r.push(n);return r}function k(t,n){if(--n<=0)return t;var r=(t=Object.assign([],t)).length;do{for(var e=0;e<r;e++)t.push(t[e])}while(--n>0);return t}var S=/\.0+$/g;function _(t){return Number.isInteger(t)?t+"":t.toFixed(6).replace(S,"")}function M(t){var n=arguments.length>1&&void 0!==arguments[1]?arguments[1]:" ";return t&&t.length?t.map(_).join(n):""}function I(t){return _(t.x)+","+_(t.y)}function E(t){return t?null==t.a||t.a>=1?"rgb("+t.r+","+t.g+","+t.b+")":"rgba("+t.r+","+t.g+","+t.b+","+t.a+")":"transparent"}var F={f:null,i:m,u:function(t,n){return function(r){var e=n(r);t.setAttribute("rx",_(e.x)),t.setAttribute("ry",_(e.y))}}},B={f:null,i:function(t,n,r){return 0===t?n:1===t?r:{width:d(t,n.width,r.width),height:d(t,n.height,r.height)}},u:function(t,n){return function(r){var e=n(r);t.setAttribute("width",_(e.width)),t.setAttribute("height",_(e.height))}}},j=Math.sin,q=Math.cos,P=Math.acos,O=Math.asin,z=Math.tan,L=Math.atan2,C=Math.PI/180,R=180/Math.PI,T=Math.sqrt,V=function(){function t(){var r=arguments.length>0&&void 0!==arguments[0]?arguments[0]:1,e=arguments.length>1&&void 0!==arguments[1]?arguments[1]:0,i=arguments.length>2&&void 0!==arguments[2]?arguments[2]:0,u=arguments.length>3&&void 0!==arguments[3]?arguments[3]:1,o=arguments.length>4&&void 0!==arguments[4]?arguments[4]:0,a=arguments.length>5&&void 0!==arguments[5]?arguments[5]:0;n(this,t),this.m=[r,e,i,u,o,a],this.i=null,this.w=null,this.s=null}return e(t,[{key:"point",value:function(t,n){var r=this.m;return{x:r[0]*t+r[2]*n+r[4],y:r[1]*t+r[3]*n+r[5]}}},{key:"translateSelf",value:function(){var t=arguments.length>0&&void 0!==arguments[0]?arguments[0]:0,n=arguments.length>1&&void 0!==arguments[1]?arguments[1]:0;if(!t&&!n)return this;var r=this.m;return r[4]+=r[0]*t+r[2]*n,r[5]+=r[1]*t+r[3]*n,this.w=this.s=this.i=null,this}},{key:"rotateSelf",value:function(){var t=arguments.length>0&&void 0!==arguments[0]?arguments[0]:0;if(t%=360){var n=j(t*=C),r=q(t),e=this.m,i=e[0],u=e[1];e[0]=i*r+e[2]*n,e[1]=u*r+e[3]*n,e[2]=e[2]*r-i*n,e[3]=e[3]*r-u*n,this.w=this.s=this.i=null}return this}},{key:"scaleSelf",value:function(){var t=arguments.length>0&&void 0!==arguments[0]?arguments[0]:1,n=arguments.length>1&&void 0!==arguments[1]?arguments[1]:1;if(1!==t||1!==n){var r=this.m;r[0]*=t,r[1]*=t,r[2]*=n,r[3]*=n,this.w=this.s=this.i=null}return this}},{key:"skewSelf",value:function(t,n){if(n%=360,(t%=360)||n){var r=this.m,e=r[0],i=r[1],u=r[2],o=r[3];t&&(t=z(t*C),r[2]+=e*t,r[3]+=i*t),n&&(n=z(n*C),r[0]+=u*n,r[1]+=o*n),this.w=this.s=this.i=null}return this}},{key:"resetSelf",value:function(){var t=arguments.length>0&&void 0!==arguments[0]?arguments[0]:1,n=arguments.length>1&&void 0!==arguments[1]?arguments[1]:0,r=arguments.length>2&&void 0!==arguments[2]?arguments[2]:0,e=arguments.length>3&&void 0!==arguments[3]?arguments[3]:1,i=arguments.length>4&&void 0!==arguments[4]?arguments[4]:0,u=arguments.length>5&&void 0!==arguments[5]?arguments[5]:0,o=this.m;return o[0]=t,o[1]=n,o[2]=r,o[3]=e,o[4]=i,o[5]=u,this.w=this.s=this.i=null,this}},{key:"recomposeSelf",value:function(){var t=arguments.length>0&&void 0!==arguments[0]?arguments[0]:null,n=arguments.length>1&&void 0!==arguments[1]?arguments[1]:null,r=arguments.length>2&&void 0!==arguments[2]?arguments[2]:null,e=arguments.length>3&&void 0!==arguments[3]?arguments[3]:null,i=arguments.length>4&&void 0!==arguments[4]?arguments[4]:null;return this.isIdentity||this.resetSelf(),t&&(t.x||t.y)&&this.translateSelf(t.x,t.y),n&&this.rotateSelf(n),r&&(r.x&&this.skewSelf(r.x,0),r.y&&this.skewSelf(0,r.y)),!e||1===e.x&&1===e.y||this.scaleSelf(e.x,e.y),i&&(i.x||i.y)&&this.translateSelf(i.x,i.y),this}},{key:"decompose",value:function(){var t=arguments.length>0&&void 0!==arguments[0]?arguments[0]:0,n=arguments.length>1&&void 0!==arguments[1]?arguments[1]:0,r=this.m,e=r[0]*r[0]+r[1]*r[1],i=[[r[0],r[1]],[r[2],r[3]]],u=T(e);if(0===u)return{origin:{x:r[4],y:r[5]},translate:{x:t,y:n},scale:{x:0,y:0},skew:{x:0,y:0},rotate:0};i[0][0]/=u,i[0][1]/=u;var o=r[0]*r[3]-r[1]*r[2]<0;o&&(u=-u);var a=i[0][0]*i[1][0]+i[0][1]*i[1][1];i[1][0]-=i[0][0]*a,i[1][1]-=i[0][1]*a;var l=T(i[1][0]*i[1][0]+i[1][1]*i[1][1]);if(0===l)return{origin:{x:r[4],y:r[5]},translate:{x:t,y:n},scale:{x:u,y:0},skew:{x:0,y:0},rotate:0};i[1][0]/=l,i[1][1]/=l,a/=l;var f=0;return i[1][1]<0?(f=P(i[1][1])*R,i[0][1]<0&&(f=360-f)):f=O(i[0][1])*R,o&&(f=-f),a=L(a,T(i[0][0]*i[0][0]+i[0][1]*i[0][1]))*R,{origin:{x:r[4],y:r[5]},translate:{x:t,y:n},scale:{x:u,y:l},skew:{x:a,y:0},rotate:f}}},{key:"toString",value:function(){return null===this.s&&(this.s="matrix("+this.m.map(N).join(" ")+")"),this.s}},{key:"determinant",get:function(){var t=this.m;return t[0]*t[3]-t[1]*t[2]}},{key:"isIdentity",get:function(){if(null===this.i){var t=this.m;this.i=1===t[0]&&0===t[1]&&0===t[2]&&1===t[3]&&0===t[4]&&0===t[5]}return this.i}}]),t}(),D=/\.0+$/;function N(t){return Number.isInteger(t)?t:t.toFixed(14).replace(D,"")}Object.freeze({M:2,L:2,Z:0,H:1,V:1,C:6,Q:4,T:2,S:4,A:7});function G(t,n,r){return t+(n-t)*r}function $(t,n,r){var e=arguments.length>3&&void 0!==arguments[3]&&arguments[3],i={x:G(t.x,n.x,r),y:G(t.y,n.y,r)};return e&&(i.a=H(t,n)),i}function H(t,n){return Math.atan2(n.y-t.y,n.x-t.x)}function Q(t,n,r,e){var i=1-e;return i*i*t+2*i*e*n+e*e*r}function U(t,n,r,e){return 2*(1-e)*(n-t)+2*e*(r-n)}function Y(t,n,r,e){var i=arguments.length>4&&void 0!==arguments[4]&&arguments[4],u={x:Q(t.x,n.x,r.x,e),y:Q(t.y,n.y,r.y,e)};return i&&(u.a=Z(t,n,r,e)),u}function Z(t,n,r,e){return Math.atan2(U(t.y,n.y,r.y,e),U(t.x,n.x,r.x,e))}function J(t,n,r,e,i){var u=i*i;return i*u*(e-t+3*(n-r))+3*u*(t+r-2*n)+3*i*(n-t)+t}function K(t,n,r,e,i){var u=1-i;return 3*(u*u*(n-t)+2*u*i*(r-n)+i*i*(e-r))}function W(t,n,r,e,i){var u=arguments.length>5&&void 0!==arguments[5]&&arguments[5],o={x:J(t.x,n.x,r.x,e.x,i),y:J(t.y,n.y,r.y,e.y,i)};return u&&(o.a=X(t,n,r,e,i)),o}function X(t,n,r,e,i){return Math.atan2(K(t.y,n.y,r.y,e.y,i),K(t.x,n.x,r.x,e.x,i))}function tt(t,n,r){var e=arguments.length>3&&void 0!==arguments[3]&&arguments[3];if(rt(n)){if(et(r))return Y(n,r.start,r,t,e)}else if(rt(r)){if(n.end)return Y(n,n.end,r,t,e)}else{if(n.end)return r.start?W(n,n.end,r.start,r,t,e):Y(n,n.end,r,t,e);if(r.start)return Y(n,r.start,r,t,e)}return $(n,r,t,e)}function nt(t,n,r){var e=tt(t,n,r,!0);return e.a=function(t){var n=arguments.length>1&&void 0!==arguments[1]&&arguments[1];return n?t+Math.PI:t}(e.a)/v,e}function rt(t){return!t.type||"corner"===t.type}function et(t){return null!=t.start&&!rt(t)}var it=new V;var ut={f:function(t){return t?t.join(" "):""},i:function(n,r,e){if(0===n)return r;if(1===n)return e;var i=r.length;if(i!==e.length)return h(n,r,e);for(var u,o=new Array(i),a=0;a<i;a++){if((u=t(r[a]))!==t(e[a]))return h(n,r,e);if("number"===u)o[a]=y(n,r[a],e[a]);else{if(r[a]!==e[a])return h(n,r,e);o[a]=r[a]}}return o}},ot={f:null,i:A,u:function(t,n){return function(r){var e=n(r);t.setAttribute("x1",_(e[0])),t.setAttribute("y1",_(e[1])),t.setAttribute("x2",_(e[2])),t.setAttribute("y2",_(e[3]))}}},at={f:_,i:y},lt={f:_,i:function(t,n,r){var e=y(t,n,r);return e<=0?0:e>=1?1:e}},ft={f:M,i:function(t,n,r){var e,i,u,o=n.length,a=r.length;if(o!==a)if(0===o)n=x(o=a,0);else if(0===a)a=o,r=x(o,0);else{var l=(u=(e=o)*(i=a)/function(t,n){for(var r;n;)r=n,n=t%n,t=r;return t||1}(e,i))<0?-u:u;n=k(n,Math.floor(l/o)),r=k(r,Math.floor(l/a)),o=a=l}for(var f=[],s=0;s<o;s++)f.push(c(d(t,n[s],r[s]),6));return f}};function st(t,n,r,e,i,u,o,a){return n=function(t,n,r){for(var e,i,u,o=t.length-1,a={},l=0;l<=o;l++)(e=t[l]).e&&(e.e=n(e.e)),e.v&&"g"===(i=e.v).t&&i.r&&(u=r.getElementById(i.r))&&(a[i.r]=u.querySelectorAll("stop"));return a}(t,e,a),function(e){var i,u=r(e,t,ct);return u?"c"===u.t?E(u.v):"g"===u.t?(n[u.r]&&function(t,n){for(var r=0,e=t.length;r<e;r++)t[r].setAttribute("stop-color",E(n[r]))}(n[u.r],u.v),(i=u.r)?"url(#"+i+")":"none"):"none":"none"}}function ct(t,n,r){if(0===t)return n;if(1===t)return r;if(n&&r){var e=n.t;if(e===r.t)switch(n.t){case"c":return{t:e,v:b(t,n.v,r.v)};case"g":if(n.r===r.r)return{t:e,v:w(t,n.v,r.v),r:n.r}}}return h(t,n,r)}var vt={blur:m,brightness:d,contrast:d,"drop-shadow":function(t,n,r){return 0===t?n:1===t?r:{blur:m(t,n.blur,r.blur),offset:g(t,n.offset,r.offset),color:b(t,n.color,r.color)}},grayscale:d,"hue-rotate":y,invert:d,opacity:d,saturate:d,sepia:d};function ht(t,n,r){if(0===t)return n;if(1===t)return r;var e=n.length;if(e!==r.length)return h(t,n,r);for(var i,u=[],o=0;o<e;o++){if(n[o].type!==r[o].type)return n;if(!(i=vt[n[o].type]))return h(t,n,r);u.push({type:n.type,value:i(t,n[o].value,r[o].value)})}return u}var yt={blur:function(t){return t?function(n){t.setAttribute("stdDeviation",I(n))}:null},brightness:function(t,n,r){return(t=gt(r,n))?function(n){n=_(n),t.map((function(t){return t.setAttribute("slope",n)}))}:null},contrast:function(t,n,r){return(t=gt(r,n))?function(n){var r=_((1-n)/2);n=_(n),t.map((function(t){t.setAttribute("slope",n),t.setAttribute("intercept",r)}))}:null},"drop-shadow":function(t,n,r){var e=r.getElementById(n+"-blur");if(!e)return null;var i=r.getElementById(n+"-offset");if(!i)return null;var u=r.getElementById(n+"-flood");return u?function(t){e.setAttribute("stdDeviation",I(t.blur)),i.setAttribute("dx",_(t.offset.x)),i.setAttribute("dy",_(t.offset.y)),u.setAttribute("flood-color",E(t.color))}:null},grayscale:function(t){return t?function(n){t.setAttribute("values",M(function(t){return[.2126+.7874*(t=1-t),.7152-.7152*t,.0722-.0722*t,0,0,.2126-.2126*t,.7152+.2848*t,.0722-.0722*t,0,0,.2126-.2126*t,.7152-.7152*t,.0722+.9278*t,0,0,0,0,0,1,0]}(n)))}:null},"hue-rotate":function(t){return t?function(n){return t.setAttribute("values",_(n))}:null},invert:function(t,n,r){return(t=gt(r,n))?function(n){n=_(n)+" "+_(1-n),t.map((function(t){return t.setAttribute("tableValues",n)}))}:null},opacity:function(t,n,r){return(t=r.getElementById(n+"-A"))?function(n){return t.setAttribute("tableValues","0 "+_(n))}:null},saturate:function(t){return t?function(n){return t.setAttribute("values",_(n))}:null},sepia:function(t){return t?function(n){return t.setAttribute("values",M(function(t){return[.393+.607*(t=1-t),.769-.769*t,.189-.189*t,0,0,.349-.349*t,.686+.314*t,.168-.168*t,0,0,.272-.272*t,.534-.534*t,.131+.869*t,0,0,0,0,0,1,0]}(n)))}:null}};var dt=["R","G","B"];function gt(t,n){var r=dt.map((function(r){return t.getElementById(n+"-"+r)||null}));return-1!==r.indexOf(null)?null:r}var mt={fill:st,"fill-opacity":lt,stroke:st,"stroke-opacity":lt,"stroke-width":at,"stroke-dashoffset":{f:_,i:y},"stroke-dasharray":ft,opacity:lt,transform:function(n,r,e,i){if(!(n=function(n,r){if(!n||"object"!==t(n))return null;var e=!1;for(var i in n)n.hasOwnProperty(i)&&(n[i]&&n[i].length?(n[i].forEach((function(t){t.e&&(t.e=r(t.e))})),e=!0):delete n[i]);return e?n:null}(n,i)))return null;var u=function(t,i,u){var o=arguments.length>3&&void 0!==arguments[3]?arguments[3]:null;return n[t]?e(i,n[t],u):r&&r[t]?r[t]:o};return r&&r.a&&n.o?function(t){var r=e(t,n.o,nt);return it.recomposeSelf(r,u("r",t,y,0)+r.a,u("k",t,g),u("s",t,g),u("t",t,g)).toString()}:function(t){return it.recomposeSelf(u("o",t,tt,null),u("r",t,y,0),u("k",t,g),u("s",t,g),u("t",t,g)).toString()}},"#filter":function(t,n,r,e,i,u,o,a){if(!n.items||!t||!t.length)return null;var l=function(t,n){var r=(t=t.map((function(t){return t&&yt[t[0]]?(n.getElementById(t[1]),yt[t[0]](n.getElementById(t[1]),t[1],n)):null}))).length;return function(n){for(var e=0;e<r;e++)t[e]&&t[e](n[e].value)}}(n.items,a);return l?(t=function(t,n){return t.map((function(t){return t.e=n(t.e),t}))}(t,e),function(n){l(r(n,t,ht))}):null},"#line":ot,points:{f:M,i:A},d:ut,r:at,"#size":B,"#radius":F,_:function(t,n){if(Array.isArray(t))for(var r=0;r<t.length;r++)this[t[r]]=n;else this[t]=n}},pt=function(){function t(r){n(this,t),this.list=r,this.length=r.length}return e(t,[{key:"setAttribute",value:function(t,n){for(var r=this.list,e=0;e<this.length;e++)r[e].setAttribute(t,n)}},{key:"removeAttribute",value:function(t){for(var n=this.list,r=0;r<this.length;r++)n[r].removeAttribute(t)}},{key:"style",value:function(t,n){for(var r=this.list,e=0;e<this.length;e++)r[e].style[t]=n}}]),t}(),bt=/-./g,wt=function(t,n){return n.toUpperCase()};function At(t){return"function"==typeof t?t:h}function xt(t){return t?"function"==typeof t?t:Array.isArray(t)?function(t){var n=arguments.length>1&&void 0!==arguments[1]?arguments[1]:u;if(!Array.isArray(t))return n;switch(t.length){case 1:return s(t[0])||n;case 2:return s(t[0],t[1])||n;case 4:return a(t[0],t[1],t[2],t[3])||n}return n}(t,null):function(t,n){var r=arguments.length>2&&void 0!==arguments[2]?arguments[2]:u;switch(t){case"linear":return u;case"steps":return s(n.steps||1,n.jump||0)||r;case"bezier":case"cubic-bezier":return a(n.x1||0,n.y1||0,n.x2||0,n.y2||0)||r}return r}(t.type,t.value,null):null}function kt(t,n,r){var e=arguments.length>3&&void 0!==arguments[3]&&arguments[3],i=n.length-1;if(t<=n[0].t)return e?[0,0,n[0].v]:n[0].v;if(t>=n[i].t)return e?[i,1,n[i].v]:n[i].v;var u,o=n[0],a=null;for(u=1;u<=i;u++){if(!(t>n[u].t)){a=n[u];break}o=n[u]}return null==a?e?[i,1,n[i].v]:n[i].v:o.t===a.t?e?[u,1,a.v]:a.v:(t=(t-o.t)/(a.t-o.t),o.e&&(t=o.e(t)),e?[u,t,r(t,o.v,a.v)]:r(t,o.v,a.v))}function St(t,n){var r=arguments.length>2&&void 0!==arguments[2]?arguments[2]:null;return t&&t.length?"function"!=typeof n?null:("function"!=typeof r&&(r=null),function(e){var i=kt(e,t,n);return null!=i&&r&&(i=r(i)),i}):null}function _t(t,n){return t.t-n.t}function Mt(n,r,e,i,u){var o,a="@"===e[0],l="#"===e[0],f=mt[e],s=h;switch(a?(o=e.substr(1),e=o.replace(bt,wt)):l&&(e=e.substr(1)),t(f)){case"function":if(s=f(i,u,kt,xt,e,a,r,n),l)return s;break;case"string":s=St(i,At(f));break;case"object":if((s=St(i,At(f.i),f.f))&&"function"==typeof f.u)return f.u(r,s,e,a,n)}return s?function(t,n,r){var e=arguments.length>3&&void 0!==arguments[3]&&arguments[3];if(e)return t instanceof pt?function(e){return t.style(n,r(e))}:function(e){return t.style[n]=r(e)};if(Array.isArray(n)){var i=n.length;return function(e){var u=r(e);if(null==u)for(var o=0;o<i;o++)t[o].removeAttribute(n);else for(var a=0;a<i;a++)t[a].setAttribute(n,u)}}return function(e){var i=r(e);null==i?t.removeAttribute(n):t.setAttribute(n,i)}}(r,e,s,a):null}function It(n,r,e,i){if(!i||"object"!==t(i))return null;var u=null,o=null;return Array.isArray(i)?o=function(t){if(!t||!t.length)return null;for(var n=0;n<t.length;n++)t[n].e&&(t[n].e=xt(t[n].e));return t.sort(_t)}(i):(o=i.keys,u=i.data||null),o?Mt(n,r,e,o,u):null}function Et(t,n,r){if(!r)return null;var e=[];for(var i in r)if(r.hasOwnProperty(i)){var u=It(t,n,i,r[i]);u&&e.push(u)}return e.length?e:null}function Ft(t,n){if(!n.duration||n.duration<0)return null;var r=function(t,n){if(!n)return null;var r=[];if(Array.isArray(n))for(var e=n.length,i=0;i<e;i++){var u=n[i];if(2===u.length){var o=null;if("string"==typeof u[0])o=t.getElementById(u[0]);else if(Array.isArray(u[0])){o=[];for(var a=0;a<u[0].length;a++)if("string"==typeof u[0][a]){var l=t.getElementById(u[0][a]);l&&o.push(l)}o=o.length?1===o.length?o[0]:new pt(o):null}if(o){var f=Et(t,o,u[1]);f&&(r=r.concat(f))}}}else for(var s in n)if(n.hasOwnProperty(s)){var c=t.getElementById(s);if(c){var v=Et(t,c,n[s]);v&&(r=r.concat(v))}}return r.length?r:null}(t,n.elements);return r?function(t,n){var r=arguments.length>2&&void 0!==arguments[2]?arguments[2]:1/0,e=arguments.length>3&&void 0!==arguments[3]?arguments[3]:1,i=arguments.length>4&&void 0!==arguments[4]&&arguments[4],u=arguments.length>5&&void 0!==arguments[5]?arguments[5]:1,o=t.length,a=e>0?n:0;i&&r%2==0&&(a=n-a);var l=null;return function(f,s){var c=f%n,v=1+(f-c)/n;s*=e,i&&v%2==0&&(s=-s);var h=!1;if(v>r)c=a,h=!0,-1===u&&(c=e>0?0:n);else if(s<0&&(c=n-c),c===l)return!1;l=c;for(var y=0;y<o;y++)t[y](c);return h}}(r,n.duration,n.iterations||1/0,n.direction||1,!!n.alternate,n.fill||1):null}var Bt=function(){function t(r){var e=arguments.length>1&&void 0!==arguments[1]?arguments[1]:{};n(this,t),this._id=0,this._running=!1,this._animations=r,this.direction=e.direction||1,this.speed=e.speed||1,this.fps=e.fps||100,this.offset=e.offset||0}return e(t,[{key:"_start",value:function(){var t=this,n=arguments.length>0&&void 0!==arguments[0]?arguments[0]:0,r=-1/0,e=null,i={},u=function u(o){t._running=!0,null==e&&(e=o);var a=Math.round((o-e+n)*t.speed),l=t.fps?1e3/t.fps:0;if(a>r+l){t.offset=a,r=a;for(var f=t._animations,s=f.length,c=0,v=0;v<s;v++)i[v]?c++:(i[v]=f[v](a,t.direction),i[v]&&c++);if(c===s)return void t._stop()}t._id=window.requestAnimationFrame(u)};this._id=window.requestAnimationFrame(u)}},{key:"_stop",value:function(){this._id&&window.cancelAnimationFrame(this._id),this._running=!1}},{key:"play",value:function(){this._running||this._start(this.offset)}},{key:"stop",value:function(){this._stop(),this.offset=0;var t=this.direction,n=this._animations;requestAnimationFrame((function(){for(var r=0;r<n.length;r++)n[r](0,t)}))}},{key:"restart",value:function(){this._stop(),this.offset=0,this._start()}},{key:"pause",value:function(){this._stop()}},{key:"reverse",value:function(){this.direction=-this.direction}}],[{key:"build",value:function(n){if(!(n=function(t){if(!t||!t.root||!Array.isArray(t.animations))return null;var n=window.document.getElementById(t.root);if(!n)return null;var r=t.animations.map((function(t){return Ft(n,t)})).filter((function(t){return!!t}));return r.length?{element:n,animations:r,options:t.options||void 0}:null}(n)))return null;var r=n.element,e=n.options||{},i=new t(n.animations,n.options);return function(t,n,r){var e=arguments.length>3&&void 0!==arguments[3]?arguments[3]:null;if("click"===r){var i=function r(){n.removeEventListener("click",r),t.play()};return void n.addEventListener("click",i)}if("hover"===r)return n.addEventListener("mouseenter",(function(){return t.play()})),void n.addEventListener("mouseleave","freeze"===e?function(){return t.pause()}:function(){return t.stop()});t.play()}(i,r,e.start,e.hover),i}}]),t}();return function(){for(var t=0,n=["ms","moz","webkit","o"],r=0;r<n.length&&!window.requestAnimationFrame;++r)window.requestAnimationFrame=window[n[r]+"RequestAnimationFrame"],window.cancelAnimationFrame=window[n[r]+"CancelAnimationFrame"]||window[n[r]+"CancelRequestAnimationFrame"];window.requestAnimationFrame||(window.requestAnimationFrame=function(n){var r=Date.now(),e=Math.max(0,16-(r-t)),i=window.setTimeout((function(){n(r+e)}),e);return t=r+e,i},window.cancelAnimationFrame=window.clearTimeout)}(),Bt}));
__SVGATOR_PLAYER__.build({"root":"erlvqn9465a1","animations":[{"duration":4000,"direction":1,"iterations":0,"fill":1,"alternate":false,"elements":{"erlvqn9465a2":{"transform":{"keys":{"o":[{"t":0,"v":{"x":-6.6648505500000255,"y":-8.96555620499997,"type":"corner"}},{"t":900,"v":{"x":-8.471714890000072,"y":15.074949319999916,"type":"corner"}},{"t":2100,"v":{"x":36.36456250000013,"y":38.46476642000002,"type":"corner"}},{"t":3200,"v":{"x":36.36456249500016,"y":22.34872974999999,"type":"corner"}},{"t":4000,"v":{"x":-6.6648505500000255,"y":-8.96555620499997,"type":"corner"}}]}}},"erlvqn9465a9":{"transform":{"keys":{"o":[{"t":0,"v":{"x":-13.209609230000012,"y":9.490412500000119,"type":"corner"}},{"t":1600,"v":{"x":-14.345745579999999,"y":-4.893919499999853,"type":"corner"}},{"t":2800,"v":{"x":-14.288719250000042,"y":-10.090511979999846,"type":"corner"}},{"t":3300,"v":{"x":-14.742239137499885,"y":1.7906134975001127,"type":"corner"}},{"t":4000,"v":{"x":-13.604788939999992,"y":-19.983531249999928,"type":"corner"}}]}}},"erlvqn9465a10":{"transform":{"keys":{"o":[{"t":0,"v":{"x":1.5515869500000008,"y":-8.506649954999972,"type":"corner"}},{"t":500,"v":{"x":1.551586949999944,"y":12.496794489999942,"type":"corner"}},{"t":1000,"v":{"x":1.5515869549998342,"y":-5.595666469999969,"type":"corner"}},{"t":1500,"v":{"x":34.25500000499987,"y":7.631999999999977,"type":"corner"}},{"t":2000,"v":{"x":41.48628995499992,"y":7.632000000000005,"type":"corner"}},{"t":2500,"v":{"x":34.25500000000007,"y":16.601490225000035,"type":"corner"}},{"t":2800,"v":{"x":34.254999995000205,"y":29.794635999999997,"type":"corner"}},{"t":3000,"v":{"x":14.32727497500018,"y":29.140213000000017,"type":"corner"}}]}}},"erlvqn9465a45":{"transform":{"keys":{"o":[{"t":0,"v":{"x":0,"y":0,"type":"corner"}},{"t":400,"v":{"x":1.806864339999919,"y":1.1510191299999661,"type":"corner"}},{"t":1400,"v":{"x":45.7207523849999,"y":1,"type":"corner"}},{"t":2400,"v":{"x":58.710414920000105,"y":5.580964999999992,"type":"corner"}},{"t":3400,"v":{"x":57.158827975000136,"y":27.176941999999997,"type":"corner"}},{"t":4000,"v":{"x":0,"y":0,"type":"corner"}}]}}},"erlvqn9465a46":{"transform":{"keys":{"o":[{"t":0,"v":{"x":-202.95143342166665,"y":107.42408704666656,"type":"corner"}},{"t":1800,"v":{"x":-196.2037885066668,"y":97.37109374666656,"type":"corner"}},{"t":4000,"v":{"x":-202.95143342166665,"y":107.42408704666656,"type":"corner"}}]}}},"erlvqn9465a52":{"transform":{"keys":{"o":[{"t":0,"v":{"x":-4.2522294999999986,"y":15.05174199999999,"type":"corner"}},{"t":1500,"v":{"x":-40.25372950000002,"y":0,"type":"corner"}},{"t":2500,"v":{"x":-28.12072949500031,"y":5.580965000000049,"type":"corner"}},{"t":4000,"v":{"x":-4.2522294999999986,"y":15.05174199999999,"type":"corner"}}]}}},"erlvqn9465a53":{"transform":{"keys":{"o":[{"t":0,"v":{"x":0,"y":0,"type":"corner"}},{"t":900,"v":{"x":0,"y":15.943421399999977,"type":"corner"}},{"t":2300,"v":{"x":-66.76713828000004,"y":25.33349155999997,"type":"corner"}},{"t":3100,"v":{"x":-31.531928230000062,"y":12.146247700000004,"type":"corner"}},{"t":4000,"v":{"x":0,"y":0,"type":"corner"}}]}}},"erlvqn9465a54":{"transform":{"keys":{"o":[{"t":0,"v":{"x":0,"y":0,"type":"corner"}},{"t":500,"v":{"x":57.15882797499981,"y":0,"type":"corner"}},{"t":1000,"v":{"x":18.483327979999814,"y":0,"type":"corner"}},{"t":1500,"v":{"x":45.7207523849999,"y":1,"type":"corner"}},{"t":2000,"v":{"x":68.31765595499989,"y":15.397317999999984,"type":"corner"}},{"t":2500,"v":{"x":58.710414920000105,"y":5.580964999999992,"type":"corner"}},{"t":2800,"v":{"x":57.158827975000136,"y":27.176941999999997,"type":"corner"}},{"t":3000,"v":{"x":35.26882797500018,"y":27.176941999999997,"type":"corner"}},{"t":4000,"v":{"x":0,"y":0,"type":"corner"}}]}}},"erlvqn9465a56":{"transform":{"data":{"t":{"x":98.5,"y":26}},"keys":{"o":[{"t":0,"v":{"x":-135.31765595,"y":60.47276255000003,"type":"corner"}},{"t":600,"v":{"x":-11.264706644999947,"y":10.406841143750032,"type":"corner"}},{"t":1500,"v":{"x":59.78726295000017,"y":22.830810518750035,"type":"corner"}},{"t":4000,"v":{"x":432.0675650500001,"y":56.07634380000003,"type":"corner"}}]}}}}}],"options":{"start":"load","hover":"freeze"}})]]></script></svg>